<svg height="29" viewBox="0 0 283 39" fill="none" xmlns="http://www.w3.org/2000/svg">
    <g clipPath="url(#clip0_6_9)">
        <path d="M62.8182 31V7.72727H76.7727V10.2273H65.6364V18.0909H75.7273V20.5909H65.6364V31H62.8182ZM84.4176 7.72727V31H81.5994V7.72727H84.4176ZM108.523 7.72727V31H105.795L93.1136 12.7273H92.8864V31H90.0682V7.72727H92.7955L105.523 26.0455H105.75V7.72727H108.523ZM114.162 31V7.72727H116.98V19.2727H117.253L127.707 7.72727H131.389L121.616 18.2273L131.389 31H127.98L119.889 20.1818L116.98 23.4545V31H114.162ZM137.855 7.72727V31H135.037V7.72727H137.855ZM152.506 31V7.72727H155.324V28.5H166.142V31H152.506ZM173.324 7.72727V31H170.506V7.72727H173.324ZM178.974 31V7.72727H187.111C188.732 7.72727 190.069 8.00758 191.122 8.56818C192.175 9.12121 192.959 9.86742 193.474 10.8068C193.99 11.7386 194.247 12.7727 194.247 13.9091C194.247 14.9091 194.069 15.7348 193.713 16.3864C193.365 17.0379 192.902 17.553 192.327 17.9318C191.759 18.3106 191.141 18.5909 190.474 18.7727V19C191.187 19.0455 191.902 19.2955 192.622 19.75C193.342 20.2045 193.944 20.8561 194.429 21.7045C194.914 22.553 195.156 23.5909 195.156 24.8182C195.156 25.9848 194.891 27.0341 194.361 27.9659C193.83 28.8977 192.993 29.6364 191.849 30.1818C190.705 30.7273 189.217 31 187.384 31H178.974ZM181.793 28.5H187.384C189.224 28.5 190.531 28.1439 191.304 27.4318C192.084 26.7121 192.474 25.8409 192.474 24.8182C192.474 24.0303 192.274 23.303 191.872 22.6364C191.471 21.9621 190.899 21.4242 190.156 21.0227C189.414 20.6136 188.535 20.4091 187.52 20.4091H181.793V28.5ZM181.793 17.9545H187.02C187.868 17.9545 188.634 17.7879 189.315 17.4545C190.005 17.1212 190.55 16.6515 190.952 16.0455C191.361 15.4394 191.565 14.7273 191.565 13.9091C191.565 12.8864 191.209 12.0189 190.497 11.3068C189.785 10.5871 188.656 10.2273 187.111 10.2273H181.793V17.9545ZM199.787 31V7.72727H207.651C209.469 7.72727 210.961 8.03788 212.128 8.65909C213.295 9.27273 214.158 10.1174 214.719 11.1932C215.279 12.2689 215.56 13.4924 215.56 14.8636C215.56 16.2348 215.279 17.4508 214.719 18.5114C214.158 19.572 213.298 20.4053 212.139 21.0114C210.98 21.6098 209.499 21.9091 207.696 21.9091H201.332V19.3636H207.605C208.848 19.3636 209.848 19.1818 210.605 18.8182C211.37 18.4545 211.923 17.9394 212.264 17.2727C212.613 16.5985 212.787 15.7955 212.787 14.8636C212.787 13.9318 212.613 13.1174 212.264 12.4205C211.916 11.7235 211.359 11.1856 210.594 10.8068C209.829 10.4205 208.817 10.2273 207.56 10.2273H202.605V31H199.787ZM210.741 20.5455L216.469 31H213.196L207.56 20.5455H210.741ZM221.21 31H218.256L226.801 7.72727H229.71L238.256 31H235.301L228.347 11.4091H228.165L221.21 31ZM222.301 21.9091H234.21V24.4091H222.301V21.9091ZM241.881 31V7.72727H249.744C251.563 7.72727 253.055 8.03788 254.222 8.65909C255.388 9.27273 256.252 10.1174 256.812 11.1932C257.373 12.2689 257.653 13.4924 257.653 14.8636C257.653 16.2348 257.373 17.4508 256.812 18.5114C256.252 19.572 255.392 20.4053 254.233 21.0114C253.074 21.6098 251.593 21.9091 249.79 21.9091H243.426V19.3636H249.699C250.941 19.3636 251.941 19.1818 252.699 18.8182C253.464 18.4545 254.017 17.9394 254.358 17.2727C254.706 16.5985 254.881 15.7955 254.881 14.8636C254.881 13.9318 254.706 13.1174 254.358 12.4205C254.009 11.7235 253.453 11.1856 252.688 10.8068C251.922 10.4205 250.911 10.2273 249.653 10.2273H244.699V31H241.881ZM252.835 20.5455L258.562 31H255.29L249.653 20.5455H252.835ZM259.568 7.72727H262.795L269.25 18.5909H269.523L275.977 7.72727H279.205L270.795 21.4091V31H267.977V21.4091L259.568 7.72727Z" fill="#303030"/>
        <path d="M50.5 19.5C50.5 28.2536 43.1968 35.5 34 35.5C24.8032 35.5 17.5 28.2536 17.5 19.5C17.5 10.7464 24.8032 3.5 34 3.5C43.1968 3.5 50.5 10.7464 50.5 19.5Z" stroke="#322260" strokeWidth="7"/>
        <rect width="8" height="39" fill="#322260"/>
    </g>
    <defs>
        <clipPath id="clip0_6_9">
        <rect width="283" height="39" fill="white"/>
        </clipPath>
    </defs>
</svg>